<svg width="20" height="20" viewBox="0 0 20 20" fill="none" xmlns="http://www.w3.org/2000/svg">
<circle cx="10" cy="10" r="10" fill="white"/>
<circle cx="10" cy="10" r="9.5" stroke="black" stroke-opacity="0.1"/>
<path d="M5.80114 8.87713L4.83878 9.04759C4.79853 8.92448 4.73461 8.80729 4.64702 8.69602C4.56179 8.58475 4.44579 8.49361 4.29901 8.42259C4.15223 8.35156 3.96875 8.31605 3.74858 8.31605C3.44792 8.31605 3.19697 8.38352 2.99574 8.51847C2.79451 8.65104 2.69389 8.82268 2.69389 9.03338C2.69389 9.21567 2.76136 9.36245 2.89631 9.47372C3.03125 9.58499 3.24905 9.67614 3.54972 9.74716L4.41619 9.94602C4.91809 10.062 5.29214 10.2408 5.53835 10.4822C5.78456 10.7237 5.90767 11.0374 5.90767 11.4233C5.90767 11.75 5.81297 12.0412 5.62358 12.2969C5.43655 12.5502 5.17495 12.7491 4.83878 12.8935C4.50497 13.0379 4.1179 13.1101 3.67756 13.1101C3.06676 13.1101 2.56842 12.9799 2.18253 12.7195C1.79664 12.4567 1.5599 12.0838 1.4723 11.6009L2.49858 11.4446C2.5625 11.7121 2.69389 11.9145 2.89276 12.0518C3.09162 12.1868 3.35085 12.2543 3.67045 12.2543C4.01847 12.2543 4.29664 12.1821 4.50497 12.0376C4.7133 11.8909 4.81747 11.7121 4.81747 11.5014C4.81747 11.331 4.75355 11.1877 4.62571 11.0717C4.50024 10.9557 4.30729 10.8681 4.04688 10.8089L3.12358 10.6065C2.61458 10.4905 2.23816 10.3059 1.99432 10.0526C1.75284 9.79924 1.6321 9.47846 1.6321 9.0902C1.6321 8.76823 1.72206 8.48651 1.90199 8.24503C2.08191 8.00355 2.33049 7.81534 2.64773 7.6804C2.96496 7.54309 3.32836 7.47443 3.73793 7.47443C4.32741 7.47443 4.79143 7.60227 5.12997 7.85795C5.46851 8.11127 5.69224 8.45099 5.80114 8.87713ZM10.5304 10.7379V7.54545H11.5957V13H10.5517V12.0554H10.4949C10.3694 12.3466 10.1681 12.5893 9.89116 12.7834C9.61654 12.9751 9.27444 13.071 8.86488 13.071C8.5145 13.071 8.20437 12.9941 7.93448 12.8402C7.66696 12.6839 7.45626 12.4531 7.30238 12.1477C7.15086 11.8423 7.07511 11.4647 7.07511 11.0149V7.54545H8.1369V10.8871C8.1369 11.2588 8.23988 11.5547 8.44585 11.7749C8.65181 11.995 8.91933 12.1051 9.2484 12.1051C9.44727 12.1051 9.64495 12.0554 9.84144 11.956C10.0403 11.8565 10.2048 11.7062 10.335 11.505C10.4676 11.3037 10.5327 11.0481 10.5304 10.7379ZM13.1076 13V5.72727H14.1694V8.42969H14.2333C14.2949 8.31605 14.3836 8.18466 14.4996 8.03551C14.6156 7.88636 14.7766 7.75616 14.9826 7.64489C15.1886 7.53125 15.4608 7.47443 15.7994 7.47443C16.2397 7.47443 16.6327 7.5857 16.9783 7.80824C17.324 8.03078 17.5951 8.35156 17.7915 8.7706C17.9904 9.18963 18.0898 9.69389 18.0898 10.2834C18.0898 10.8729 17.9916 11.3783 17.7951 11.7997C17.5986 12.2187 17.3287 12.5419 16.9854 12.7692C16.6422 12.9941 16.2504 13.1065 15.81 13.1065C15.4786 13.1065 15.2075 13.0509 14.9968 12.9396C14.7885 12.8284 14.6251 12.6982 14.5067 12.549C14.3884 12.3999 14.2972 12.2673 14.2333 12.1513H14.1445V13H13.1076ZM14.1481 10.2727C14.1481 10.6562 14.2037 10.9924 14.315 11.2812C14.4263 11.5701 14.5872 11.7962 14.7979 11.9595C15.0086 12.1205 15.2667 12.201 15.5721 12.201C15.8893 12.201 16.1545 12.117 16.3675 11.9489C16.5806 11.7784 16.7416 11.5476 16.8505 11.2564C16.9618 10.9652 17.0174 10.6373 17.0174 10.2727C17.0174 9.91288 16.9629 9.58973 16.854 9.30327C16.7475 9.01681 16.5865 8.79072 16.3711 8.625C16.158 8.45928 15.8917 8.37642 15.5721 8.37642C15.2643 8.37642 15.0039 8.45573 14.7908 8.61435C14.5801 8.77296 14.4203 8.99432 14.3114 9.27841C14.2025 9.5625 14.1481 9.89394 14.1481 10.2727Z" fill="black"/>
</svg>
